<svg width="186" height="42" xmlns="http://www.w3.org/2000/svg"><g fill="none" fill-rule="evenodd"><path d="M-2 0h188v42H-2z"/><path stroke="#FFF" stroke-width="3" fill="#FFF" stroke-linejoin="round" d="M9.5 14h16v17h-16zm50 3h16v17h-16z"/><path d="M29.542 35.126a32.744 32.744 0 0 1-6.675 4.763l-1.048.568-2.227-2.515c-.215.445-.44.88-.674 1.31l-.803 1.466-5.464-3.81.68-1.19c2.417-4.235 3.65-10.31 3.65-18.222V4.452l1.441-.056c6.233-.243 11.896-1.128 16.992-2.653l1.069-.32 3.778 5.739-1.986.55c-4.552 1.26-9.517 2.14-14.896 2.644v2.769h15.277l-.168 1.651c-.634 6.27-2.223 11.399-4.79 15.374 1.604 1.716 3.582 3.272 5.938 4.669l1.682.997-4.768 4.657-1.002-.636a38.562 38.562 0 0 1-6.006-4.711zm.07-10.805c-.38.807-.808 1.583-1.283 2.33l2.544.023a23.219 23.219 0 0 1-1.26-2.353zm-1.61-4.759a25.363 25.363 0 0 1-.324-1.726l-1.483 1.726h1.808zm3.224 0h1.805l-1.483-1.726a25.89 25.89 0 0 1-.322 1.727zM11.699 13.45H9.595c-.83 1.933-1.687 3.658-2.573 5.175l-1.025 1.754-4.554-4.955.536-.95C3.656 11.504 5.02 7.645 6.06 2.898l.34-1.564 6.246 1.8-.346 1.4c-.225.914-.43 1.72-.614 2.42h7.14l-.098 1.592c-.19 3.063-.785 6.231-1.781 9.504l-.43 1.414-6.124-1.766.518-1.494c.279-.804.542-1.723.788-2.755zm.762 14.883c.28-.27.573-.557.877-.861l1.566-1.567 2.68 6.251-.719.718c-2.464 2.464-4.82 4.436-7.073 5.916l-1.198.787-3.7-5.11 1.045-.899c.016-.014.045-.09.045-.348V14.082h6.477v14.25zm69.809-4.997V40.07h-6.692v-1.836H58.461v1.836h-6.73V22.598l-1.009.401-3.736-5.82 1.818-.615c5.61-1.9 10.342-4.385 14.206-7.45H48.586v-6.36h36.71v6.36H72.163l-1.778 1.896c5.94 1.91 10.83 4.02 14.675 6.334l1.372.826-3.756 5.402-.405-.237zm-6.692 8.5v-3.718H58.461v3.719h17.117z" stroke="#FFF" stroke-width="3" fill="#FFF" stroke-linejoin="round"/><path d="M38.871 36.11l-2.52 2.46a37.264 37.264 0 0 1-6.796-5.547c-2.149 2.188-4.616 4.037-7.403 5.547l-2.265-2.558c3.177-1.797 5.657-3.672 7.441-5.625-2.37-3.737-3.92-7.845-4.648-12.325h-.801c.104 8.243-1.322 15.066-4.277 20.47l-2.97-2.071c2.566-4.492 3.848-10.814 3.848-18.965V5.895c6.355-.248 12.142-1.153 17.364-2.715l2.031 3.086c-4.844 1.34-10.176 2.246-15.996 2.714v5.645h15.117c-.664 6.563-2.396 11.777-5.195 15.645 1.836 2.187 4.192 4.134 7.07 5.84zm-5.84-18.047h-6.836c.521 3.411 1.654 6.542 3.399 9.394 1.758-2.76 2.903-5.892 3.437-9.395zm-15.8-9.61c-.183 2.943-.756 5.996-1.72 9.16l-3.183-.918c.456-1.315.866-2.897 1.23-4.746h-4.96c-.925 2.253-1.882 4.225-2.871 5.918l-2.442-2.656c1.758-3.112 3.17-7.11 4.238-11.992l3.32.957c-.468 1.9-.846 3.327-1.132 4.277h7.52zm-1.426 23.36c-2.396 2.395-4.675 4.303-6.836 5.722l-2.051-2.832c.378-.325.566-.82.566-1.484V15.582h3.477v16.074c.924-.716 2.07-1.758 3.437-3.125l1.407 3.282zm68.48-13.184l-2.05 2.95c-4.154-2.423-8.607-4.421-13.36-5.997v7.637H80.77V38.57h-3.692v-1.836H56.961v1.836h-3.73V23.22h12.011v-9.65c-3.49 2.748-8.131 5.274-13.926 7.578l-2.03-3.164c7.304-2.474 13.196-5.93 17.675-10.37H50.086v-3.36h33.71v3.36H71.513l-2.637 2.812v1.68c6.315 1.966 11.452 4.14 15.41 6.523zm-7.207 14.707v-6.719H56.961v6.719h20.117z" fill="#0CF"/><path d="M99.568 23.889a2.728 2.728 0 0 0-1.181-.274c-1.16 0-1.739.7-1.739 2.1v1.484h2.5v1.817h-2.5V38h-2.285v-8.984h-1.836v-1.817h1.836v-1.601c0-1.179.355-2.111 1.065-2.798.71-.687 1.618-1.03 2.724-1.03.573 0 1.045.065 1.416.195v1.924zm-.388 4.033c1.1-.651 2.373-.977 3.818-.977 2.728 0 4.092 1.41 4.092 4.229V38h-2.227v-1.64h-.049c-.735 1.262-1.829 1.894-3.28 1.894-1.062 0-1.897-.287-2.506-.86-.608-.572-.913-1.344-.913-2.314 0-2.031 1.208-3.216 3.623-3.555l3.135-.43c0-1.607-.706-2.411-2.12-2.411-1.295 0-2.486.42-3.573 1.26v-2.022zM117.61 38h-2.286v-6.104c0-2.076-.755-3.115-2.265-3.115a2.39 2.39 0 0 0-1.89.865c-.498.576-.747 1.306-.747 2.192V38h-2.295V27.2h2.295v1.767h.049c.8-1.348 1.972-2.022 3.515-2.022 2.416 0 3.623 1.485 3.623 4.453V38zm6.984-14.111a2.728 2.728 0 0 0-1.182-.274c-1.159 0-1.738.7-1.738 2.1v1.484h2.5v1.817h-2.5V38h-2.285v-8.984h-1.836v-1.817h1.836v-1.601c0-1.179.354-2.111 1.064-2.798.71-.687 1.618-1.03 2.725-1.03.573 0 1.045.065 1.416.195v1.924zm-1.346 8.808c0-1.777.506-3.18 1.519-4.209 1.012-1.028 2.39-1.543 4.135-1.543 1.647 0 2.95.498 3.907 1.494.957.997 1.435 2.357 1.435 4.082 0 1.739-.504 3.129-1.514 4.17-1.009 1.042-2.356 1.563-4.043 1.563-1.653 0-2.973-.505-3.96-1.514-.986-1.009-1.479-2.357-1.479-4.043zM144.07 38h-2.285v-1.69h-.049c-.748 1.296-1.855 1.944-3.32 1.944-2.546 0-3.818-1.527-3.818-4.58v-6.475h2.285v6.192c0 2.018.775 3.027 2.324 3.027.755 0 1.374-.277 1.856-.83.481-.553.722-1.28.722-2.178V27.2h2.285V38zm7.715-5.133c0-.397.143-.726.43-.986.286-.26.628-.39 1.025-.39.39 0 .73.128 1.016.385.286.257.43.588.43.991 0 .378-.137.702-.41.972-.274.27-.626.405-1.055.405-.397 0-.736-.132-1.016-.395a1.295 1.295 0 0 1-.42-.982zm-7 4c0-.397.143-.726.43-.986.286-.26.628-.39 1.025-.39.39 0 .73.128 1.016.385.286.257.43.588.43.991 0 .378-.137.702-.41.972-.274.27-.626.405-1.055.405-.397 0-.736-.132-1.016-.395a1.295 1.295 0 0 1-.42-.982zm11.272.674c-.795.475-1.814.713-3.057.713-1.576 0-2.852-.498-3.828-1.494-.977-.996-1.465-2.298-1.465-3.906 0-1.804.524-3.24 1.572-4.307 1.048-1.068 2.445-1.602 4.19-1.602 1.074 0 1.943.173 2.607.518v2.148c-.768-.553-1.598-.83-2.49-.83-1.055 0-1.91.353-2.564 1.06-.654.706-.981 1.655-.981 2.846 0 1.166.31 2.079.933 2.74.621.66 1.456.991 2.505.991.911 0 1.77-.293 2.578-.879v2.002zm-.233-4.844c0-1.777.506-3.18 1.519-4.209 1.012-1.028 2.39-1.543 4.136-1.543 1.647 0 2.949.498 3.906 1.494.957.997 1.435 2.357 1.435 4.082 0 1.739-.504 3.129-1.513 4.17-1.01 1.042-2.357 1.563-4.043 1.563-1.654 0-2.974-.505-3.96-1.514-.987-1.009-1.48-2.357-1.48-4.043zM183.346 38h-2.295v-6.191c0-1.068-.173-1.84-.518-2.315-.345-.475-.895-.713-1.65-.713-.651 0-1.211.3-1.68.899-.469.599-.703 1.331-.703 2.197V38h-2.285v-6.348c0-1.914-.733-2.87-2.197-2.87-.678 0-1.239.289-1.685.868-.446.58-.669 1.329-.669 2.246V38h-2.295V27.2h2.295v1.698h.049c.775-1.302 1.907-1.953 3.398-1.953 1.517 0 2.543.72 3.076 2.159.808-1.44 2.012-2.159 3.614-2.159 2.363 0 3.545 1.462 3.545 4.385V38z" stroke="#FFF" stroke-width="5" fill="#FFF" stroke-linejoin="round"/><path d="M99.568 23.889a2.728 2.728 0 0 0-1.181-.274c-1.16 0-1.739.7-1.739 2.1v1.484h2.5v1.817h-2.5V38h-2.285v-8.984h-1.836v-1.817h1.836v-1.601c0-1.179.355-2.111 1.065-2.798.71-.687 1.618-1.03 2.724-1.03.573 0 1.045.065 1.416.195v1.924zm-.388 4.033c1.1-.651 2.373-.977 3.818-.977 2.728 0 4.092 1.41 4.092 4.229V38h-2.227v-1.64h-.049c-.735 1.262-1.829 1.894-3.28 1.894-1.062 0-1.897-.287-2.506-.86-.608-.572-.913-1.344-.913-2.314 0-2.031 1.208-3.216 3.623-3.555l3.135-.43c0-1.607-.706-2.411-2.12-2.411-1.295 0-2.486.42-3.573 1.26v-2.022zm3.31 5.058c-.781.105-1.333.303-1.655.596-.322.293-.483.723-.483 1.29 0 .474.172.863.517 1.166.345.303.788.454 1.328.454.768 0 1.407-.271 1.914-.815.508-.544.762-1.229.762-2.056v-.957l-2.383.322zM117.61 38h-2.286v-6.104c0-2.076-.755-3.115-2.265-3.115a2.39 2.39 0 0 0-1.89.865c-.498.576-.747 1.306-.747 2.192V38h-2.295V27.2h2.295v1.767h.049c.8-1.348 1.972-2.022 3.515-2.022 2.416 0 3.623 1.485 3.623 4.453V38zm6.984-14.111a2.728 2.728 0 0 0-1.182-.274c-1.159 0-1.738.7-1.738 2.1v1.484h2.5v1.817h-2.5V38h-2.285v-8.984h-1.836v-1.817h1.836v-1.601c0-1.179.354-2.111 1.064-2.798.71-.687 1.618-1.03 2.725-1.03.573 0 1.045.065 1.416.195v1.924zm-1.346 8.808c0-1.777.506-3.18 1.519-4.209 1.012-1.028 2.39-1.543 4.135-1.543 1.647 0 2.95.498 3.907 1.494.957.997 1.435 2.357 1.435 4.082 0 1.739-.504 3.129-1.514 4.17-1.009 1.042-2.356 1.563-4.043 1.563-1.653 0-2.973-.505-3.96-1.514-.986-1.009-1.479-2.357-1.479-4.043zm2.334-.049c0 1.185.288 2.11.864 2.774.576.664 1.36.996 2.349.996 2.077 0 3.115-1.28 3.115-3.838 0-1.237-.267-2.18-.8-2.827-.534-.648-1.306-.972-2.315-.972-1.01 0-1.797.345-2.363 1.035-.567.69-.85 1.635-.85 2.832zM144.07 38h-2.285v-1.69h-.049c-.748 1.296-1.855 1.944-3.32 1.944-2.546 0-3.818-1.527-3.818-4.58v-6.475h2.285v6.192c0 2.018.775 3.027 2.324 3.027.755 0 1.374-.277 1.856-.83.481-.553.722-1.28.722-2.178V27.2h2.285V38zm.715-1.133c0-.397.143-.726.43-.986.286-.26.628-.39 1.025-.39.39 0 .73.128 1.016.385.286.257.43.588.43.991 0 .378-.137.702-.41.972-.274.27-.626.405-1.055.405-.397 0-.736-.132-1.016-.395a1.295 1.295 0 0 1-.42-.982zm11.272.674c-.795.475-1.814.713-3.057.713-1.576 0-2.852-.498-3.828-1.494-.977-.996-1.465-2.298-1.465-3.906 0-1.804.524-3.24 1.572-4.307 1.048-1.068 2.445-1.602 4.19-1.602 1.074 0 1.943.173 2.607.518v2.148c-.768-.553-1.598-.83-2.49-.83-1.055 0-1.91.353-2.564 1.06-.654.706-.981 1.655-.981 2.846 0 1.166.31 2.079.933 2.74.621.66 1.456.991 2.505.991.911 0 1.77-.293 2.578-.879v2.002zm-.233-4.844c0-1.777.506-3.18 1.519-4.209 1.012-1.028 2.39-1.543 4.136-1.543 1.647 0 2.949.498 3.906 1.494.957.997 1.435 2.357 1.435 4.082 0 1.739-.504 3.129-1.513 4.17-1.01 1.042-2.357 1.563-4.043 1.563-1.654 0-2.974-.505-3.96-1.514-.987-1.009-1.48-2.357-1.48-4.043zm2.334-.049c0 1.185.288 2.11.864 2.774.577.664 1.36.996 2.35.996 2.076 0 3.114-1.28 3.114-3.838 0-1.237-.267-2.18-.8-2.827-.534-.648-1.306-.972-2.315-.972s-1.797.345-2.363 1.035c-.567.69-.85 1.635-.85 2.832zM183.346 38h-2.295v-6.191c0-1.068-.173-1.84-.518-2.315-.345-.475-.895-.713-1.65-.713-.651 0-1.211.3-1.68.899-.469.599-.703 1.331-.703 2.197V38h-2.285v-6.348c0-1.914-.733-2.87-2.197-2.87-.678 0-1.239.289-1.685.868-.446.58-.669 1.329-.669 2.246V38h-2.295V27.2h2.295v1.698h.049c.775-1.302 1.907-1.953 3.398-1.953 1.517 0 2.543.72 3.076 2.159.808-1.44 2.012-2.159 3.614-2.159 2.363 0 3.545 1.462 3.545 4.385V38z" fill="#0CF"/></g></svg>