<svg xmlns="http://www.w3.org/2000/svg" viewBox="0 0 474.628 474.628"><path d="M237.314 0c-73.045 0-132.473 59.427-132.473 132.487 0 19.922 16.154 36.078 36.078 36.078 19.92 0 36.076-16.156 36.076-36.078 0-33.264 27.055-60.333 60.318-60.333s60.318 27.069 60.318 60.333c0 33.265-27.055 60.318-60.318 60.318-19.922 0-36.078 16.155-36.078 36.076v81.44c0 19.921 16.156 36.075 36.078 36.075s36.076-16.154 36.076-36.075v-50.358c55.568-15.74 96.397-66.928 96.397-127.477C369.787 59.427 310.359 0 237.314 0zm0 373.698c-27.869 0-50.467 22.597-50.467 50.481 0 27.853 22.598 50.448 50.467 50.448s50.465-22.596 50.465-50.448c0-27.884-22.596-50.481-50.465-50.481z" fill="#ccc"/></svg>