<svg width="48" height="40" xmlns="http://www.w3.org/2000/svg"><g fill="none" fill-rule="evenodd"><path d="M18.247.935c.506 0 .915.508.915 1.134v11.862c0 .626-.409 1.134-.915 1.134H.915c-.506 0-.915-.508-.915-1.134V2.069C0 1.443.409.935.915.935h17.332zm-.825.876H1.74c-.458 0-.828.444-.828.993v10.392c0 .549.37.993.828.993h15.682c.458 0 .828-.444.828-.993V2.804c0-.549-.37-.993-.828-.993zM15.541 3.89c.348 0 .63.296.63.66v6.901c0 .364-.282.659-.63.659H3.621c-.348 0-.63-.295-.63-.659V4.55c0-.364.282-.66.63-.66h11.92zM5.034 5.236a.194.194 0 0 0-.194.194v1.509c0 .107.087.194.194.194h1.655a.194.194 0 0 0 .194-.194V5.43a.194.194 0 0 0-.194-.194H5.034zm-1.288 5.836l11.541-.004-2.858-5.832-2.846 3.648L8.27 6.841l-4.524 4.231z" fill="#525252"/><path d="M42.247.935c.506 0 .915.508.915 1.134v11.862c0 .626-.409 1.134-.915 1.134H24.915c-.506 0-.915-.508-.915-1.134V2.069c0-.626.409-1.134.915-1.134h17.332zm-.825.876H25.74c-.458 0-.828.444-.828.993v10.392c0 .549.37.993.828.993h15.682c.458 0 .828-.444.828-.993V2.804c0-.549-.37-.993-.828-.993zM39.541 3.89c.348 0 .63.296.63.66v6.901c0 .364-.282.659-.63.659h-11.92c-.348 0-.63-.295-.63-.659V4.55c0-.364.282-.66.63-.66h11.92zM29.034 5.236a.194.194 0 0 0-.194.194v1.509c0 .107.087.194.194.194h1.655a.194.194 0 0 0 .194-.194V5.43a.194.194 0 0 0-.194-.194h-1.655zm-1.288 5.836l11.541-.004-2.858-5.832-2.846 3.648-1.313-2.043-4.524 4.231z" fill="#00A1CB"/><g transform="translate(0 20)"><path d="M18.247.935c.506 0 .915.508.915 1.134v11.862c0 .626-.409 1.134-.915 1.134H.915c-.506 0-.915-.508-.915-1.134V2.069C0 1.443.409.935.915.935h17.332zm-.825.876H1.74c-.458 0-.828.444-.828.993v10.392c0 .549.37.993.828.993h15.682c.458 0 .828-.444.828-.993V2.804c0-.549-.37-.993-.828-.993zM15.541 3.89c.348 0 .63.296.63.66v6.901c0 .364-.282.659-.63.659H3.621c-.348 0-.63-.295-.63-.659V4.55c0-.364.282-.66.63-.66h11.92zM5.034 5.236a.194.194 0 0 0-.194.194v1.509c0 .107.087.194.194.194h1.655a.194.194 0 0 0 .194-.194V5.43a.194.194 0 0 0-.194-.194H5.034zm-1.288 5.836l11.541-.004-2.858-5.832-2.846 3.648L8.27 6.841l-4.524 4.231z" fill="#525252"/><ellipse fill="#1BA31B" cx="17.64" cy="11.852" rx="5.074" ry="5.12"/><path d="M16.896 13.11l4.017-4.016c.392.536.67 1.133.828 1.756l-4.789 5.041-2.782-2.949 1.335-1.391 1.391 1.559z" fill="#FFF"/></g><g transform="translate(24 20)"><path d="M18.247.935c.506 0 .915.508.915 1.134v11.862c0 .626-.409 1.134-.915 1.134H.915c-.506 0-.915-.508-.915-1.134V2.069C0 1.443.409.935.915.935h17.332zm-.825.876H1.74c-.458 0-.828.444-.828.993v10.392c0 .549.37.993.828.993h15.682c.458 0 .828-.444.828-.993V2.804c0-.549-.37-.993-.828-.993zM15.541 3.89c.348 0 .63.296.63.66v6.901c0 .364-.282.659-.63.659H3.621c-.348 0-.63-.295-.63-.659V4.55c0-.364.282-.66.63-.66h11.92zM5.034 5.236a.194.194 0 0 0-.194.194v1.509c0 .107.087.194.194.194h1.655a.194.194 0 0 0 .194-.194V5.43a.194.194 0 0 0-.194-.194H5.034zm-1.288 5.836l11.541-.004-2.858-5.832-2.846 3.648L8.27 6.841l-4.524 4.231z" fill="#00A1CB"/><ellipse fill="#1BA31B" cx="17.64" cy="11.852" rx="5.074" ry="5.12"/><path d="M16.896 13.11l4.017-4.016c.392.536.67 1.133.828 1.756l-4.789 5.041-2.782-2.949 1.335-1.391 1.391 1.559z" fill="#FFF"/></g></g></svg>