<?xml version="1.0" encoding="utf-8"?>
<svg viewBox="0 0 36 18" width="36" height="18" xmlns="http://www.w3.org/2000/svg">
  <g transform="matrix(0.1546349972486496, 0, 0, 0.1546349972486496, 0.7999259829521184, 0.7997709512710571)">
    <ellipse transform="matrix(1.000002, -0.00006, 0.00006, 1, -1564.251845, -450.430506)" cx="1617.247" cy="503.56" rx="51.735" ry="51.735" style="fill: rgb(255, 255, 255);"/>
    <path d="M90.546,15.518C69.858-5.172,36.199-5.172,15.515,15.513C-5.173,36.198-5.171,69.858,15.517,90.547   c20.682,20.684,54.341,20.684,75.027-0.004C111.23,69.858,111.229,36.2,90.546,15.518z M84.757,84.758   c-17.494,17.494-45.96,17.496-63.455,0.002c-17.498-17.497-17.496-45.966,0-63.46C38.796,3.807,67.261,3.805,84.759,21.302   C102.253,38.796,102.251,67.265,84.757,84.758z M33.24,38.671c0-3.424,2.777-6.201,6.201-6.201c3.423,0,6.2,2.776,6.2,6.201   c0,3.426-2.777,6.202-6.2,6.202C36.017,44.873,33.24,42.097,33.24,38.671z M61.357,38.671c0-3.424,2.779-6.201,6.203-6.201   c3.423,0,6.2,2.776,6.2,6.201c0,3.426-2.776,6.202-6.2,6.202S61.357,42.097,61.357,38.671z M76.017,64.068   c-3.843,8.887-12.843,14.629-22.927,14.629c-10.301,0-19.354-5.771-23.064-14.703c-0.636-1.529,0.089-3.285,1.62-3.921   c0.376-0.155,0.766-0.229,1.15-0.229c1.176,0,2.292,0.695,2.771,1.85c2.777,6.686,9.655,11.004,17.523,11.004   c7.69,0,14.528-4.321,17.42-11.011c0.658-1.521,2.424-2.222,3.944-1.563S76.675,62.548,76.017,64.068z" style="fill: rgb(85, 85, 85);"/>
  </g>
  <g transform="matrix(0.1546349972486496, 0, 0, 0.1546349972486496, 18.79996109008789, 0.799769937992096)">
    <ellipse transform="matrix(1.000002, -0.00006, 0.00006, 1, -1564.249037, -450.430506)" cx="1617.247" cy="503.56" rx="51.735" ry="51.735" style="fill: rgb(255, 255, 255);"/>
    <path d="M90.546,15.518C69.858-5.172,36.199-5.172,15.515,15.513C-5.173,36.198-5.171,69.858,15.517,90.547   c20.682,20.684,54.341,20.684,75.027-0.004C111.23,69.858,111.229,36.2,90.546,15.518z M84.757,84.758   c-17.494,17.494-45.96,17.496-63.455,0.002c-17.498-17.497-17.496-45.966,0-63.46C38.796,3.807,67.261,3.805,84.759,21.302   C102.253,38.796,102.251,67.265,84.757,84.758z M33.24,38.671c0-3.424,2.777-6.201,6.201-6.201c3.423,0,6.2,2.776,6.2,6.201   c0,3.426-2.777,6.202-6.2,6.202C36.017,44.873,33.24,42.097,33.24,38.671z M61.357,38.671c0-3.424,2.779-6.201,6.203-6.201   c3.423,0,6.2,2.776,6.2,6.201c0,3.426-2.776,6.202-6.2,6.202S61.357,42.097,61.357,38.671z M76.017,64.068   c-3.843,8.887-12.843,14.629-22.927,14.629c-10.301,0-19.354-5.771-23.064-14.703c-0.636-1.529,0.089-3.285,1.62-3.921   c0.376-0.155,0.766-0.229,1.15-0.229c1.176,0,2.292,0.695,2.771,1.85c2.777,6.686,9.655,11.004,17.523,11.004   c7.69,0,14.528-4.321,17.42-11.011c0.658-1.521,2.424-2.222,3.944-1.563S76.675,62.548,76.017,64.068z" style="fill: rgb(65, 159, 199);"/>
  </g>
</svg>