<?xml version="1.0" encoding="UTF-8"?>
<svg width="186px" height="42px" viewBox="0 0 186 42" version="1.1" xmlns="http://www.w3.org/2000/svg" xmlns:xlink="http://www.w3.org/1999/xlink">
    <!-- Generator: Sketch 50.2 (55047) - http://www.bohemiancoding.com/sketch -->
    <title>fanfou-logo</title>
    <desc>Created with Sketch.</desc>
    <defs></defs>
    <g id="Page-1" stroke="none" stroke-width="1" fill="none" fill-rule="evenodd">
        <g id="fanfou-logo" transform="translate(-2.000000, 0.000000)">
            <rect id="canvas" x="0" y="0" width="188" height="42"></rect>
            <g id="fanfou" transform="translate(5.000000, 2.500000)">
                <rect id="fill" stroke="#FFFFFF" stroke-width="3" fill="#FFFFFF" stroke-linejoin="round" x="6.5" y="11.5" width="16" height="17"></rect>
                <rect id="fill-copy" stroke="#FFFFFF" stroke-width="3" fill="#FFFFFF" stroke-linejoin="round" x="56.5" y="14.5" width="16" height="17"></rect>
                <path d="M26.5424161,32.6255442 C24.5532829,34.4672785 22.3273089,36.0554996 19.8671655,37.3890353 L18.8194191,37.9569726 L16.5924176,35.4419968 C16.3767155,35.8865392 16.1517657,36.3229034 15.9175566,36.7510829 L15.1151126,38.2181062 L9.65059906,34.407327 L10.3302155,33.2171357 C12.7479854,28.9829702 13.9804688,22.908141 13.9804688,14.9960938 L13.9804688,1.9517964 L15.4221113,1.89566688 C21.6548083,1.6530004 27.3181761,0.76750194 32.4137146,-0.757347485 L33.4830126,-1.07733691 L37.2605119,4.6615563 L35.2752631,5.21123541 C30.7229822,6.47167878 25.7575637,7.35259932 20.3789063,7.85562177 L20.3789062,10.625 L35.6555395,10.625 L35.4884726,12.2760145 C34.8540901,18.5452066 33.2652138,23.6745097 30.6987419,27.6502694 C32.3022493,29.3655504 34.2797182,30.9223478 36.6359574,32.3190326 L38.3180586,33.3161152 L33.5501123,37.973179 L32.5475503,37.3366317 C30.4026116,35.9747659 28.4006005,34.4040532 26.5424161,32.6255442 Z M26.6124551,21.8209222 C26.2322425,22.627534 25.8042544,23.4042269 25.3285036,24.1513319 L27.8732393,24.1741474 C27.4063373,23.4110762 26.9860929,22.6267577 26.6124551,21.8209222 Z M25.0026602,17.0625 C24.8755367,16.4960351 24.7673646,15.920597 24.6781308,15.3361155 L23.1953125,17.0625 L25.0026602,17.0625 Z M28.2258989,17.0625 L30.03125,17.0625 L28.5483753,15.3364856 C28.4589209,15.9233936 28.3514278,16.4987062 28.2258989,17.0625 Z M8.69883991,10.9492188 L6.59498238,10.9492188 C5.76581997,12.8822646 4.90848869,14.607028 4.02150769,16.1242324 L2.9965111,17.877516 L-1.55734061,12.9229254 L-1.02089151,11.9732118 C0.656185324,9.00416464 2.02016945,5.14478097 3.05806199,0.398321221 L3.40014631,-1.16608881 L9.64554091,0.634054341 L9.30012973,2.03488858 C9.0749919,2.94794758 8.87035349,3.75371606 8.68589746,4.453125 L15.8262644,4.453125 L15.7275989,6.04586758 C15.5378511,9.10893911 14.9433609,12.277302 13.946658,15.5502586 L13.5161331,16.9640093 L7.39299409,15.1984416 L7.91081281,13.7041647 C8.18965355,12.89951 8.45261583,11.9808723 8.69883991,10.9492188 Z M9.4609375,25.8316861 C9.74134336,25.561756 10.0336663,25.2747009 10.3377773,24.9705898 L11.9044074,23.4039598 L14.5834496,29.6550583 L13.8653477,30.3731602 C11.4013165,32.8371913 9.04550097,34.8093455 6.79206461,36.2890115 L5.59426806,37.0755165 L1.89483357,31.9667736 L2.93855932,31.0670101 C2.95517785,31.0526837 2.984375,30.9761671 2.984375,30.71875 L2.984375,11.5820312 L9.4609375,11.5820312 L9.4609375,25.8316861 Z M79.2695312,20.8349817 L79.2695312,37.5703125 L72.578125,37.5703125 L72.578125,35.734375 L55.4609375,35.734375 L55.4609375,37.5703125 L48.7304688,37.5703125 L48.7304688,20.0980436 L47.7220238,20.4991554 L43.985885,14.6794006 L45.8039823,14.0636457 C51.4130858,12.1639494 56.1455056,9.67919935 60.0098873,6.61328125 L45.5859375,6.61328125 L45.5859375,0.25390625 L82.296875,0.25390625 L82.296875,6.61328125 L69.1615668,6.61328125 L67.3837207,8.50965038 C73.3236399,10.4208258 78.2137904,12.5292142 82.0587641,14.8437872 L83.4312686,15.6699988 L79.6752333,21.0715353 L79.2695313,20.8349817 Z M72.578125,29.3359375 L72.578125,25.6171875 L55.4609375,25.6171875 L55.4609375,29.3359375 L72.578125,29.3359375 Z" id="饭否-back" stroke="#FFFFFF" stroke-width="3" fill="#FFFFFF" stroke-linejoin="round"></path>
                <path d="M35.8710938,33.609375 L33.3515625,36.0703125 C30.8906127,34.5078047 28.6250104,32.6588648 26.5546875,30.5234375 C24.4062393,32.7109484 21.938816,34.5598883 19.1523438,36.0703125 L16.8867188,33.5117188 C20.063818,31.7148348 22.5442619,29.8398535 24.328125,27.8867188 C21.9583215,24.1497209 20.4088578,20.0416891 19.6796875,15.5625 L18.8789062,15.5625 C18.9830734,23.8047287 17.5573064,30.6275771 14.6015625,36.03125 L11.6328125,33.9609375 C14.1979295,29.4687275 15.4804688,23.1471762 15.4804688,14.9960938 L15.4804688,3.39453125 C21.8346672,3.14713418 27.6223697,2.24219531 32.84375,0.6796875 L34.875,3.765625 C30.0312258,5.10677754 24.6992479,6.01171641 18.8789062,6.48046875 L18.8789062,12.125 L33.9960938,12.125 C33.3320279,18.6875328 31.6002744,23.9023244 28.8007812,27.7695312 C30.6367279,29.9570422 32.9934752,31.9036373 35.8710938,33.609375 Z M30.03125,15.5625 L23.1953125,15.5625 C23.7161484,18.9739754 24.8489496,22.1054545 26.59375,24.9570312 C28.3515713,22.1966008 29.4973932,19.0651217 30.03125,15.5625 Z M14.2304688,5.953125 C14.0481762,8.89584805 13.4752652,11.9492029 12.5117188,15.1132812 L9.328125,14.1953125 C9.78385645,12.8802018 10.1940086,11.2981863 10.5585938,9.44921875 L5.59765625,9.44921875 C4.67317246,11.7018342 3.71615078,13.6744707 2.7265625,15.3671875 L0.28515625,12.7109375 C2.04297754,9.59894277 3.45572383,5.60158691 4.5234375,0.71875 L7.84375,1.67578125 C7.37499766,3.57683242 6.99739727,5.00259941 6.7109375,5.953125 L14.2304688,5.953125 Z M12.8046875,29.3125 C10.4088422,31.7083453 8.13021914,33.6158783 5.96875,35.0351562 L3.91796875,32.203125 C4.2955748,31.8776025 4.484375,31.3828158 4.484375,30.71875 L4.484375,13.0820312 L7.9609375,13.0820312 L7.9609375,29.15625 C8.88542129,28.4401006 10.0312432,27.3984443 11.3984375,26.03125 L12.8046875,29.3125 Z M81.2851562,16.1289062 L79.234375,19.078125 C75.0807084,16.6562379 70.6276279,14.65756 65.875,13.0820312 L65.875,20.71875 L77.7695312,20.71875 L77.7695312,36.0703125 L74.078125,36.0703125 L74.078125,34.234375 L53.9609375,34.234375 L53.9609375,36.0703125 L50.2304688,36.0703125 L50.2304688,20.71875 L62.2421875,20.71875 L62.2421875,11.0703125 C58.7525867,13.8177221 54.1107061,16.3437385 48.3164062,18.6484375 L46.2851562,15.484375 C53.5898803,13.0104043 59.4817484,9.55340762 63.9609375,5.11328125 L47.0859375,5.11328125 L47.0859375,1.75390625 L80.796875,1.75390625 L80.796875,5.11328125 L68.5117188,5.11328125 L65.875,7.92578125 L65.875,9.60546875 C72.1901357,11.5716244 77.3268031,13.7460818 81.2851562,16.1289062 Z M74.078125,30.8359375 L74.078125,24.1171875 L53.9609375,24.1171875 L53.9609375,30.8359375 L74.078125,30.8359375 Z" id="饭否-front" fill="#00CCFF"></path>
            </g>
            <g id="fanfou.com" transform="translate(94.000000, 21.000000)">
                <path d="M7.56835938,2.88867188 C7.18424287,2.7063793 6.7903666,2.61523438 6.38671875,2.61523438 C5.22785879,2.61523438 4.6484375,3.31509717 4.6484375,4.71484375 L4.6484375,6.19921875 L7.1484375,6.19921875 L7.1484375,8.015625 L4.6484375,8.015625 L4.6484375,17 L2.36328125,17 L2.36328125,8.015625 L0.52734375,8.015625 L0.52734375,6.19921875 L2.36328125,6.19921875 L2.36328125,4.59765625 C2.36328125,3.41926494 2.71809541,2.48665708 3.42773438,1.79980469 C4.13737334,1.11295229 5.04556738,0.76953125 6.15234375,0.76953125 C6.72526328,0.76953125 7.19726377,0.834634766 7.56835938,0.96484375 L7.56835938,2.88867188 Z M7.1796875,6.921875 C8.27995342,6.27083008 9.55272715,5.9453125 10.9980469,5.9453125 C13.7259251,5.9453125 15.0898438,7.35480361 15.0898438,10.1738281 L15.0898438,17 L12.8632812,17 L12.8632812,15.359375 L12.8144531,15.359375 C12.0787724,16.6224021 10.9850333,17.2539062 9.53320312,17.2539062 C8.4719999,17.2539062 7.63704731,16.9674508 7.02832031,16.3945312 C6.41959331,15.8216117 6.11523438,15.0501351 6.11523438,14.0800781 C6.11523438,12.048818 7.32290459,10.863934 9.73828125,10.5253906 L12.8730469,10.0957031 C12.8730469,8.48762217 12.1666737,7.68359375 10.7539062,7.68359375 C9.45832686,7.68359375 8.26693252,8.10351143 7.1796875,8.94335938 L7.1796875,6.921875 Z M25.609375,17 L23.3242188,17 L23.3242188,10.8964844 C23.3242188,8.81965107 22.569018,7.78125 21.0585938,7.78125 C20.2968712,7.78125 19.6669947,8.06933306 19.1689453,8.64550781 C18.6708959,9.22168257 18.421875,9.95246953 18.421875,10.8378906 L18.421875,17 L16.1269531,17 L16.1269531,6.19921875 L18.421875,6.19921875 L18.421875,7.96679688 L18.4707031,7.96679688 C19.2714884,6.61913389 20.4433517,5.9453125 21.9863281,5.9453125 C24.4017048,5.9453125 25.609375,7.42967266 25.609375,10.3984375 L25.609375,17 Z M32.59375,2.88867188 C32.2096335,2.7063793 31.8157572,2.61523438 31.4121094,2.61523438 C30.2532494,2.61523438 29.6738281,3.31509717 29.6738281,4.71484375 L29.6738281,6.19921875 L32.1738281,6.19921875 L32.1738281,8.015625 L29.6738281,8.015625 L29.6738281,17 L27.3886719,17 L27.3886719,8.015625 L25.5527344,8.015625 L25.5527344,6.19921875 L27.3886719,6.19921875 L27.3886719,4.59765625 C27.3886719,3.41926494 27.743486,2.48665708 28.453125,1.79980469 C29.162764,1.11295229 30.070958,0.76953125 31.1777344,0.76953125 C31.7506539,0.76953125 32.2226544,0.834634766 32.59375,0.96484375 L32.59375,2.88867188 Z M31.2480469,11.6972656 C31.2480469,9.91991299 31.7542267,8.51693223 32.7666016,7.48828125 C33.7789764,6.45963027 35.1575434,5.9453125 36.9023438,5.9453125 C38.5494874,5.9453125 39.8515577,6.44335439 40.8085938,7.43945312 C41.7656298,8.43555186 42.2441406,9.79621533 42.2441406,11.5214844 C42.2441406,13.2597743 41.7395884,14.6497344 40.7304688,15.6914062 C39.7213491,16.7330781 38.3737063,17.2539062 36.6875,17.2539062 C35.0338459,17.2539062 33.7138721,16.749354 32.7275391,15.7402344 C31.741206,14.7311147 31.2480469,13.383472 31.2480469,11.6972656 Z M52.0703125,17 L49.7851562,17 L49.7851562,15.3105469 L49.7363281,15.3105469 C48.9876265,16.6061263 47.8808667,17.2539062 46.4160156,17.2539062 C43.87043,17.2539062 42.5976562,15.7272288 42.5976562,12.6738281 L42.5976562,6.19921875 L44.8828125,6.19921875 L44.8828125,12.390625 C44.8828125,14.4088643 45.6575443,15.4179688 47.2070312,15.4179688 C47.9622434,15.4179688 48.5807268,15.1412788 49.0625,14.5878906 C49.5442732,14.0345024 49.7851562,13.3085982 49.7851562,12.4101562 L49.7851562,6.19921875 L52.0703125,6.19921875 L52.0703125,17 Z M59.7851562,11.8671875 C59.7851562,11.4700501 59.928384,11.1412773 60.2148438,10.8808594 C60.5013035,10.6204414 60.843097,10.4902344 61.2402344,10.4902344 C61.6308613,10.4902344 61.9693996,10.6188138 62.2558594,10.8759766 C62.5423191,11.1331393 62.6855469,11.4635396 62.6855469,11.8671875 C62.6855469,12.2447936 62.5488295,12.5686835 62.2753906,12.8388672 C62.0019518,13.1090508 61.6503928,13.2441406 61.2207031,13.2441406 C60.8235657,13.2441406 60.4850274,13.112306 60.2050781,12.8486328 C59.9251288,12.5849596 59.7851562,12.2578145 59.7851562,11.8671875 Z M52.7851562,15.8671875 C52.7851562,15.4700501 52.928384,15.1412773 53.2148438,14.8808594 C53.5013035,14.6204414 53.843097,14.4902344 54.2402344,14.4902344 C54.6308613,14.4902344 54.9693996,14.6188138 55.2558594,14.8759766 C55.5423191,15.1331393 55.6855469,15.4635396 55.6855469,15.8671875 C55.6855469,16.2447936 55.5488295,16.5686835 55.2753906,16.8388672 C55.0019518,17.1090508 54.6503928,17.2441406 54.2207031,17.2441406 C53.8235657,17.2441406 53.4850274,17.112306 53.2050781,16.8486328 C52.9251288,16.5849596 52.7851562,16.2578145 52.7851562,15.8671875 Z M64.0566406,16.5410156 C63.2623658,17.0162784 62.2434958,17.2539062 61,17.2539062 C59.4244713,17.2539062 58.1484424,16.7558644 57.171875,15.7597656 C56.1953076,14.7636669 55.7070312,13.4615966 55.7070312,11.8535156 C55.7070312,10.0501212 56.2311146,8.61458867 57.2792969,7.546875 C58.3274792,6.47916133 59.7239496,5.9453125 61.46875,5.9453125 C62.5429741,5.9453125 63.4121061,6.11783682 64.0761719,6.46289062 L64.0761719,8.61132812 C63.3079389,8.05793994 62.477869,7.78125 61.5859375,7.78125 C60.5312447,7.78125 59.6767611,8.13443657 59.0224609,8.84082031 C58.3681608,9.54720405 58.0410156,10.4960878 58.0410156,11.6875 C58.0410156,12.8528704 58.3518849,13.7659472 58.9736328,14.4267578 C59.5953807,15.0875684 60.4303333,15.4179688 61.4785156,15.4179688 C62.3899785,15.4179688 63.2493449,15.1250029 64.0566406,14.5390625 L64.0566406,16.5410156 Z M63.8242188,11.6972656 C63.8242188,9.91991299 64.3303986,8.51693223 65.3427734,7.48828125 C66.3551483,6.45963027 67.7337152,5.9453125 69.4785156,5.9453125 C71.1256593,5.9453125 72.4277296,6.44335439 73.3847656,7.43945312 C74.3418017,8.43555186 74.8203125,9.79621533 74.8203125,11.5214844 C74.8203125,13.2597743 74.3157603,14.6497344 73.3066406,15.6914062 C72.297521,16.7330781 70.9498782,17.2539062 69.2636719,17.2539062 C67.6100178,17.2539062 66.290044,16.749354 65.3037109,15.7402344 C64.3173779,14.7311147 63.8242188,13.383472 63.8242188,11.6972656 Z M91.3457031,17 L89.0507812,17 L89.0507812,10.8085938 C89.0507812,9.74088008 88.8782569,8.96940342 88.5332031,8.49414062 C88.1881493,8.01887783 87.6380246,7.78125 86.8828125,7.78125 C86.2317676,7.78125 85.6718773,8.08072617 85.203125,8.6796875 C84.7343727,9.27864883 84.5,10.0110634 84.5,10.8769531 L84.5,17 L82.2148438,17 L82.2148438,10.6523438 C82.2148438,8.73827168 81.4824292,7.78125 80.0175781,7.78125 C79.3404914,7.78125 78.7789736,8.07096064 78.3330078,8.65039062 C77.887042,9.22982061 77.6640625,9.97851104 77.6640625,10.8964844 L77.6640625,17 L75.3691406,17 L75.3691406,6.19921875 L77.6640625,6.19921875 L77.6640625,7.8984375 L77.7128906,7.8984375 C78.4876341,6.59634766 79.6204353,5.9453125 81.1113281,5.9453125 C82.6282628,5.9453125 83.6536432,6.66470635 84.1875,8.10351562 C84.9947957,6.66470635 86.1992107,5.9453125 87.8007812,5.9453125 C90.1640743,5.9453125 91.3457031,7.40688643 91.3457031,10.3300781 L91.3457031,17 Z" id="fanfou.com-back" stroke="#FFFFFF" stroke-width="5" fill="#FFFFFF" stroke-linejoin="round"></path>
                <path d="M7.56835938,2.88867188 C7.18424287,2.7063793 6.7903666,2.61523438 6.38671875,2.61523438 C5.22785879,2.61523438 4.6484375,3.31509717 4.6484375,4.71484375 L4.6484375,6.19921875 L7.1484375,6.19921875 L7.1484375,8.015625 L4.6484375,8.015625 L4.6484375,17 L2.36328125,17 L2.36328125,8.015625 L0.52734375,8.015625 L0.52734375,6.19921875 L2.36328125,6.19921875 L2.36328125,4.59765625 C2.36328125,3.41926494 2.71809541,2.48665708 3.42773438,1.79980469 C4.13737334,1.11295229 5.04556738,0.76953125 6.15234375,0.76953125 C6.72526328,0.76953125 7.19726377,0.834634766 7.56835938,0.96484375 L7.56835938,2.88867188 Z M7.1796875,6.921875 C8.27995342,6.27083008 9.55272715,5.9453125 10.9980469,5.9453125 C13.7259251,5.9453125 15.0898438,7.35480361 15.0898438,10.1738281 L15.0898438,17 L12.8632812,17 L12.8632812,15.359375 L12.8144531,15.359375 C12.0787724,16.6224021 10.9850333,17.2539062 9.53320312,17.2539062 C8.4719999,17.2539062 7.63704731,16.9674508 7.02832031,16.3945312 C6.41959331,15.8216117 6.11523438,15.0501351 6.11523438,14.0800781 C6.11523438,12.048818 7.32290459,10.863934 9.73828125,10.5253906 L12.8730469,10.0957031 C12.8730469,8.48762217 12.1666737,7.68359375 10.7539062,7.68359375 C9.45832686,7.68359375 8.26693252,8.10351143 7.1796875,8.94335938 L7.1796875,6.921875 Z M10.4902344,11.9804688 C9.70898047,12.0846359 9.15722817,12.2832017 8.83496094,12.5761719 C8.5126937,12.8691421 8.3515625,13.2988253 8.3515625,13.8652344 C8.3515625,14.3404972 8.52408682,14.7294907 8.86914062,15.0322266 C9.21419443,15.3349625 9.65689834,15.4863281 10.1972656,15.4863281 C10.9654986,15.4863281 11.6035131,15.2145209 12.1113281,14.6708984 C12.6191432,14.1272759 12.8730469,13.4420614 12.8730469,12.6152344 L12.8730469,11.6582031 L10.4902344,11.9804688 Z M25.609375,17 L23.3242188,17 L23.3242188,10.8964844 C23.3242188,8.81965107 22.569018,7.78125 21.0585938,7.78125 C20.2968712,7.78125 19.6669947,8.06933306 19.1689453,8.64550781 C18.6708959,9.22168257 18.421875,9.95246953 18.421875,10.8378906 L18.421875,17 L16.1269531,17 L16.1269531,6.19921875 L18.421875,6.19921875 L18.421875,7.96679688 L18.4707031,7.96679688 C19.2714884,6.61913389 20.4433517,5.9453125 21.9863281,5.9453125 C24.4017048,5.9453125 25.609375,7.42967266 25.609375,10.3984375 L25.609375,17 Z M32.59375,2.88867188 C32.2096335,2.7063793 31.8157572,2.61523438 31.4121094,2.61523438 C30.2532494,2.61523438 29.6738281,3.31509717 29.6738281,4.71484375 L29.6738281,6.19921875 L32.1738281,6.19921875 L32.1738281,8.015625 L29.6738281,8.015625 L29.6738281,17 L27.3886719,17 L27.3886719,8.015625 L25.5527344,8.015625 L25.5527344,6.19921875 L27.3886719,6.19921875 L27.3886719,4.59765625 C27.3886719,3.41926494 27.743486,2.48665708 28.453125,1.79980469 C29.162764,1.11295229 30.070958,0.76953125 31.1777344,0.76953125 C31.7506539,0.76953125 32.2226544,0.834634766 32.59375,0.96484375 L32.59375,2.88867188 Z M31.2480469,11.6972656 C31.2480469,9.91991299 31.7542267,8.51693223 32.7666016,7.48828125 C33.7789764,6.45963027 35.1575434,5.9453125 36.9023438,5.9453125 C38.5494874,5.9453125 39.8515577,6.44335439 40.8085938,7.43945312 C41.7656298,8.43555186 42.2441406,9.79621533 42.2441406,11.5214844 C42.2441406,13.2597743 41.7395884,14.6497344 40.7304688,15.6914062 C39.7213491,16.7330781 38.3737063,17.2539062 36.6875,17.2539062 C35.0338459,17.2539062 33.7138721,16.749354 32.7275391,15.7402344 C31.741206,14.7311147 31.2480469,13.383472 31.2480469,11.6972656 Z M33.5820312,11.6484375 C33.5820312,12.8333393 33.8701143,13.7578092 34.4462891,14.421875 C35.0224638,15.0859408 35.8053336,15.4179688 36.7949219,15.4179688 C38.8717552,15.4179688 39.9101562,14.1386847 39.9101562,11.5800781 C39.9101562,10.3430928 39.6432318,9.40071938 39.109375,8.75292969 C38.5755182,8.10513999 37.8040415,7.78125 36.7949219,7.78125 C35.7858022,7.78125 34.9980497,8.12629863 34.4316406,8.81640625 C33.8652315,9.50651387 33.5820312,10.4505148 33.5820312,11.6484375 Z M52.0703125,17 L49.7851562,17 L49.7851562,15.3105469 L49.7363281,15.3105469 C48.9876265,16.6061263 47.8808667,17.2539062 46.4160156,17.2539062 C43.87043,17.2539062 42.5976562,15.7272288 42.5976562,12.6738281 L42.5976562,6.19921875 L44.8828125,6.19921875 L44.8828125,12.390625 C44.8828125,14.4088643 45.6575443,15.4179688 47.2070312,15.4179688 C47.9622434,15.4179688 48.5807268,15.1412788 49.0625,14.5878906 C49.5442732,14.0345024 49.7851562,13.3085982 49.7851562,12.4101562 L49.7851562,6.19921875 L52.0703125,6.19921875 L52.0703125,17 Z M52.7851562,15.8671875 C52.7851562,15.4700501 52.928384,15.1412773 53.2148438,14.8808594 C53.5013035,14.6204414 53.843097,14.4902344 54.2402344,14.4902344 C54.6308613,14.4902344 54.9693996,14.6188138 55.2558594,14.8759766 C55.5423191,15.1331393 55.6855469,15.4635396 55.6855469,15.8671875 C55.6855469,16.2447936 55.5488295,16.5686835 55.2753906,16.8388672 C55.0019518,17.1090508 54.6503928,17.2441406 54.2207031,17.2441406 C53.8235657,17.2441406 53.4850274,17.112306 53.2050781,16.8486328 C52.9251288,16.5849596 52.7851562,16.2578145 52.7851562,15.8671875 Z M64.0566406,16.5410156 C63.2623658,17.0162784 62.2434958,17.2539062 61,17.2539062 C59.4244713,17.2539062 58.1484424,16.7558644 57.171875,15.7597656 C56.1953076,14.7636669 55.7070312,13.4615966 55.7070312,11.8535156 C55.7070312,10.0501212 56.2311146,8.61458867 57.2792969,7.546875 C58.3274792,6.47916133 59.7239496,5.9453125 61.46875,5.9453125 C62.5429741,5.9453125 63.4121061,6.11783682 64.0761719,6.46289062 L64.0761719,8.61132812 C63.3079389,8.05793994 62.477869,7.78125 61.5859375,7.78125 C60.5312447,7.78125 59.6767611,8.13443657 59.0224609,8.84082031 C58.3681608,9.54720405 58.0410156,10.4960878 58.0410156,11.6875 C58.0410156,12.8528704 58.3518849,13.7659472 58.9736328,14.4267578 C59.5953807,15.0875684 60.4303333,15.4179688 61.4785156,15.4179688 C62.3899785,15.4179688 63.2493449,15.1250029 64.0566406,14.5390625 L64.0566406,16.5410156 Z M63.8242188,11.6972656 C63.8242188,9.91991299 64.3303986,8.51693223 65.3427734,7.48828125 C66.3551483,6.45963027 67.7337152,5.9453125 69.4785156,5.9453125 C71.1256593,5.9453125 72.4277296,6.44335439 73.3847656,7.43945312 C74.3418017,8.43555186 74.8203125,9.79621533 74.8203125,11.5214844 C74.8203125,13.2597743 74.3157603,14.6497344 73.3066406,15.6914062 C72.297521,16.7330781 70.9498782,17.2539062 69.2636719,17.2539062 C67.6100178,17.2539062 66.290044,16.749354 65.3037109,15.7402344 C64.3173779,14.7311147 63.8242188,13.383472 63.8242188,11.6972656 Z M66.1582031,11.6484375 C66.1582031,12.8333393 66.4462862,13.7578092 67.0224609,14.421875 C67.5986357,15.0859408 68.3815055,15.4179688 69.3710938,15.4179688 C71.4479271,15.4179688 72.4863281,14.1386847 72.4863281,11.5800781 C72.4863281,10.3430928 72.2194037,9.40071938 71.6855469,8.75292969 C71.15169,8.10513999 70.3802134,7.78125 69.3710938,7.78125 C68.3619741,7.78125 67.5742216,8.12629863 67.0078125,8.81640625 C66.4414034,9.50651387 66.1582031,10.4505148 66.1582031,11.6484375 Z M91.3457031,17 L89.0507812,17 L89.0507812,10.8085938 C89.0507812,9.74088008 88.8782569,8.96940342 88.5332031,8.49414062 C88.1881493,8.01887783 87.6380246,7.78125 86.8828125,7.78125 C86.2317676,7.78125 85.6718773,8.08072617 85.203125,8.6796875 C84.7343727,9.27864883 84.5,10.0110634 84.5,10.8769531 L84.5,17 L82.2148438,17 L82.2148438,10.6523438 C82.2148438,8.73827168 81.4824292,7.78125 80.0175781,7.78125 C79.3404914,7.78125 78.7789736,8.07096064 78.3330078,8.65039062 C77.887042,9.22982061 77.6640625,9.97851104 77.6640625,10.8964844 L77.6640625,17 L75.3691406,17 L75.3691406,6.19921875 L77.6640625,6.19921875 L77.6640625,7.8984375 L77.7128906,7.8984375 C78.4876341,6.59634766 79.6204353,5.9453125 81.1113281,5.9453125 C82.6282628,5.9453125 83.6536432,6.66470635 84.1875,8.10351562 C84.9947957,6.66470635 86.1992107,5.9453125 87.8007812,5.9453125 C90.1640743,5.9453125 91.3457031,7.40688643 91.3457031,10.3300781 L91.3457031,17 Z" id="fanfou.com-front" fill="#00CCFF"></path>
            </g>
        </g>
    </g>
</svg>