<?xml version="1.0" encoding="utf-8"?>
<svg viewBox="0 0 28 21" width="28" height="21" xmlns="http://www.w3.org/2000/svg">
  <path d="M 14 7 C 14 7.981 13.764 8.907 13.347 9.723 L 8 20.2 C 8 20.2 2.609 9.637 2.588 9.592 C 2.211 8.808 2 7.928 2 7 C 2 3.686 4.687 1 8 1 C 11.314 1 14 3.686 14 7 Z M 8 6 C 7.172 6 6.5 6.672 6.5 7.5 C 6.5 8.329 7.172 9 8 9 C 8.829 9 9.5 8.328 9.5 7.5 C 9.5 6.672 8.828 6 8 6 Z" style="fill: rgb(85, 85, 85);" transform="matrix(1, 0, 0, 1, 0, 0)"/>
  <path d="M 28 7 C 28 7.981 27.764 8.907 27.347 9.723 L 22 20.2 C 22 20.2 16.609 9.637 16.588 9.592 C 16.211 8.808 16 7.928 16 7 C 16 3.686 18.687 1 22 1 C 25.314 1 28 3.686 28 7 Z M 22 6 C 21.172 6 20.5 6.672 20.5 7.5 C 20.5 8.329 21.172 9 22 9 C 22.829 9 23.5 8.328 23.5 7.5 C 23.5 6.672 22.828 6 22 6 Z" style="fill: rgb(0, 161, 203);" transform="matrix(1, 0, 0, 1, 0, 0)"/>
</svg>