<?xml version="1.0" encoding="utf-8"?>
<svg viewBox="0 0 46 34" width="46" height="34" xmlns="http://www.w3.org/2000/svg" xmlns:bx="https://boxy-svg.com">
  <defs>
    <bx:guide x="22.815" y="19.476" angle="0"/>
    <bx:guide x="20.033" y="16.638" angle="90"/>
  </defs>
  <g>
    <g transform="matrix(1, 0, 0, 1, -13.419002, -9.935001)">
      <path d="M 31.666 9.935 C 32.172 9.935 32.581 10.443 32.581 11.069 C 32.581 13.668 32.581 20.332 32.581 22.931 C 32.581 23.557 32.172 24.065 31.666 24.065 C 28.017 24.065 17.983 24.065 14.334 24.065 C 13.828 24.065 13.419 23.557 13.419 22.931 C 13.419 20.332 13.419 13.668 13.419 11.069 C 13.419 10.443 13.828 9.935 14.334 9.935 C 17.983 9.935 28.017 9.935 31.666 9.935 Z" id="" style="fill: rgb(82, 82, 82);"/>
      <path d="M 30.841 10.811 C 31.299 10.811 31.669 11.255 31.669 11.804 C 31.669 14.081 31.669 19.919 31.669 22.196 C 31.669 22.745 31.299 23.189 30.841 23.189 C 27.539 23.189 18.461 23.189 15.159 23.189 C 14.701 23.189 14.331 22.745 14.331 22.196 C 14.331 19.919 14.331 14.081 14.331 11.804 C 14.331 11.255 14.701 10.811 15.159 10.811 C 18.461 10.811 27.539 10.811 30.841 10.811 Z" id="svg-1" style="fill: rgb(255, 255, 255);"/>
      <path d="M 28.96 12.89 C 29.308 12.89 29.59 13.186 29.59 13.55 C 29.59 15.062 29.59 18.939 29.59 20.451 C 29.59 20.815 29.308 21.11 28.96 21.11 C 26.45 21.11 19.55 21.11 17.04 21.11 C 16.692 21.11 16.41 20.815 16.41 20.451 C 16.41 18.939 16.41 15.062 16.41 13.55 C 16.41 13.186 16.692 12.89 17.04 12.89 C 19.55 12.89 26.45 12.89 28.96 12.89 Z" id="svg-2" style="fill: rgb(82, 82, 82);"/>
      <rect x="18.259" y="14.236" width="2.043" height="1.897" style="fill: rgb(255, 255, 255);" rx="0.194" ry="0.194"/>
      <path d="M 17.165 20.072 L 21.689 15.841 L 23.002 17.884 L 25.848 14.236 L 28.706 20.068 L 17.165 20.072 Z" style="fill: rgb(255, 255, 255);"/>
    </g>
    <g transform="matrix(1, 0, 0, 1, 9.581, -9.935001)" id="svg-3">
      <path d="M 31.666 9.935 C 32.172 9.935 32.581 10.443 32.581 11.069 C 32.581 13.668 32.581 20.332 32.581 22.931 C 32.581 23.557 32.172 24.065 31.666 24.065 C 28.017 24.065 17.983 24.065 14.334 24.065 C 13.828 24.065 13.419 23.557 13.419 22.931 C 13.419 20.332 13.419 13.668 13.419 11.069 C 13.419 10.443 13.828 9.935 14.334 9.935 C 17.983 9.935 28.017 9.935 31.666 9.935 Z" id="svg-3" style="fill: rgb(0, 161, 203);"/>
      <path d="M 30.841 10.811 C 31.299 10.811 31.669 11.255 31.669 11.804 C 31.669 14.081 31.669 19.919 31.669 22.196 C 31.669 22.745 31.299 23.189 30.841 23.189 C 27.539 23.189 18.461 23.189 15.159 23.189 C 14.701 23.189 14.331 22.745 14.331 22.196 C 14.331 19.919 14.331 14.081 14.331 11.804 C 14.331 11.255 14.701 10.811 15.159 10.811 C 18.461 10.811 27.539 10.811 30.841 10.811 Z" id="path-1" style="fill: rgb(255, 255, 255);"/>
      <path d="M 28.96 12.89 C 29.308 12.89 29.59 13.186 29.59 13.55 C 29.59 15.062 29.59 18.939 29.59 20.451 C 29.59 20.815 29.308 21.11 28.96 21.11 C 26.45 21.11 19.55 21.11 17.04 21.11 C 16.692 21.11 16.41 20.815 16.41 20.451 C 16.41 18.939 16.41 15.062 16.41 13.55 C 16.41 13.186 16.692 12.89 17.04 12.89 C 19.55 12.89 26.45 12.89 28.96 12.89 Z" id="path-2" style="fill: rgb(0, 161, 203);"/>
      <rect x="40.201" y="25.536" width="2.043" height="1.897" transform="matrix(1, 0, 0, 1.000001, -21.941999, -11.300019)" style="fill: rgb(255, 255, 255);" rx="0.194" ry="0.194" id="svg-3"/>
      <path d="M 17.165 20.072 L 21.689 15.841 L 23.002 17.884 L 25.848 14.236 L 28.706 20.068 L 17.165 20.072 Z" style="fill: rgb(255, 255, 255);" id="svg-3"/>
    </g>
    <g transform="matrix(1, 0, 0, 1, -13.418999, 7.064999)" id="svg-4">
      <path d="M 31.666 9.935 C 32.172 9.935 32.581 10.443 32.581 11.069 C 32.581 13.668 32.581 20.332 32.581 22.931 C 32.581 23.557 32.172 24.065 31.666 24.065 C 28.017 24.065 17.983 24.065 14.334 24.065 C 13.828 24.065 13.419 23.557 13.419 22.931 C 13.419 20.332 13.419 13.668 13.419 11.069 C 13.419 10.443 13.828 9.935 14.334 9.935 C 17.983 9.935 28.017 9.935 31.666 9.935 Z" id="svg-4" style="fill: rgb(82, 82, 82);"/>
      <path d="M 30.841 10.811 C 31.299 10.811 31.669 11.255 31.669 11.804 C 31.669 14.081 31.669 19.919 31.669 22.196 C 31.669 22.745 31.299 23.189 30.841 23.189 C 27.539 23.189 18.461 23.189 15.159 23.189 C 14.701 23.189 14.331 22.745 14.331 22.196 C 14.331 19.919 14.331 14.081 14.331 11.804 C 14.331 11.255 14.701 10.811 15.159 10.811 C 18.461 10.811 27.539 10.811 30.841 10.811 Z" id="path-5" style="fill: rgb(255, 255, 255);"/>
      <path d="M 28.96 12.89 C 29.308 12.89 29.59 13.186 29.59 13.55 C 29.59 15.062 29.59 18.939 29.59 20.451 C 29.59 20.815 29.308 21.11 28.96 21.11 C 26.45 21.11 19.55 21.11 17.04 21.11 C 16.692 21.11 16.41 20.815 16.41 20.451 C 16.41 18.939 16.41 15.062 16.41 13.55 C 16.41 13.186 16.692 12.89 17.04 12.89 C 19.55 12.89 26.45 12.89 28.96 12.89 Z" id="path-6" style="fill: rgb(82, 82, 82);"/>
      <rect x="40.201" y="25.536" width="2.043" height="1.897" transform="matrix(1, 0, 0, 1.000001, -21.942001, -11.300017)" rx="0.194" ry="0.194" id="svg-4" style="fill: rgb(255, 255, 255);"/>
      <path d="M 17.165 20.072 L 21.689 15.841 L 23.002 17.884 L 25.848 14.236 L 28.706 20.068 L 17.165 20.072 Z" id="svg-4" style="fill: rgb(255, 255, 255);"/>
    </g>
    <g transform="matrix(1, 0, 0, 1, 9.580999, 7.065)" id="g-1">
      <path d="M 31.666 9.935 C 32.172 9.935 32.581 10.443 32.581 11.069 C 32.581 13.668 32.581 20.332 32.581 22.931 C 32.581 23.557 32.172 24.065 31.666 24.065 C 28.017 24.065 17.983 24.065 14.334 24.065 C 13.828 24.065 13.419 23.557 13.419 22.931 C 13.419 20.332 13.419 13.668 13.419 11.069 C 13.419 10.443 13.828 9.935 14.334 9.935 C 17.983 9.935 28.017 9.935 31.666 9.935 Z" id="g-1" style="fill: rgb(0, 161, 203);"/>
      <path d="M 30.841 10.811 C 31.299 10.811 31.669 11.255 31.669 11.804 C 31.669 14.081 31.669 19.919 31.669 22.196 C 31.669 22.745 31.299 23.189 30.841 23.189 C 27.539 23.189 18.461 23.189 15.159 23.189 C 14.701 23.189 14.331 22.745 14.331 22.196 C 14.331 19.919 14.331 14.081 14.331 11.804 C 14.331 11.255 14.701 10.811 15.159 10.811 C 18.461 10.811 27.539 10.811 30.841 10.811 Z" id="path-3" style="fill: rgb(255, 255, 255);"/>
      <path d="M 28.96 12.89 C 29.308 12.89 29.59 13.186 29.59 13.55 C 29.59 15.062 29.59 18.939 29.59 20.451 C 29.59 20.815 29.308 21.11 28.96 21.11 C 26.45 21.11 19.55 21.11 17.04 21.11 C 16.692 21.11 16.41 20.815 16.41 20.451 C 16.41 18.939 16.41 15.062 16.41 13.55 C 16.41 13.186 16.692 12.89 17.04 12.89 C 19.55 12.89 26.45 12.89 28.96 12.89 Z" id="path-4" style="fill: rgb(0, 161, 203);"/>
      <rect x="40.201" y="25.536" width="2.043" height="1.897" transform="matrix(1, 0, 0, 1.000001, -21.941999, -11.300017)" style="fill: rgb(255, 255, 255);" rx="0.194" ry="0.194" id="g-1"/>
      <path d="M 17.165 20.072 L 21.689 15.841 L 23.002 17.884 L 25.848 14.236 L 28.706 20.068 L 17.165 20.072 Z" style="fill: rgb(255, 255, 255);" id="g-1"/>
    </g>
    <g transform="matrix(1, 0, 0, 1, -0.204692, 0)">
      <ellipse transform="matrix(-0.638017, 0.770022, -0.770022, -0.638017, 73.323899, 28.2255)" cx="21.205" cy="24.61" rx="5.074" ry="5.12" style="stroke-width: 0.01; fill: rgb(27, 163, 27);"/>
      <path d="M 41.101 30.11 L 45.118 26.094 C 45.51 26.63 45.787 27.227 45.946 27.85 L 41.157 32.891 L 38.375 29.942 L 39.71 28.551 Z" style="stroke-width: 0.01; fill: rgb(255, 255, 255);"/>
    </g>
    <g transform="matrix(1, 0, 0, 1, -23.260229, -0.055646)">
      <ellipse transform="matrix(-0.638018, 0.770022, -0.770021, -0.638018, 73.378374, 28.281162)" cx="21.205" cy="24.61" rx="5.074" ry="5.12" style="stroke-width: 0.01; fill: rgb(27, 163, 27);"/>
      <path d="M 41.155 30.166 L 45.172 26.15 C 45.564 26.686 45.841 27.283 46 27.906 L 41.211 32.947 L 38.429 29.998 L 39.764 28.607 Z" style="stroke-width: 0.01; fill: rgb(255, 255, 255);"/>
    </g>
  </g>
</svg>